<mxfile host="65bd71144e">
    <diagram id="Kz0ywYGAHpizFOXHB_ZU" name="Page-1">
        <mxGraphModel dx="1505" dy="542" grid="1" gridSize="10" guides="1" tooltips="1" connect="1" arrows="1" fold="1" page="1" pageScale="1" pageWidth="827" pageHeight="1169" math="0" shadow="0">
            <root>
                <mxCell id="0"/>
                <mxCell id="1" parent="0"/>
                <mxCell id="DRwbpGeYdwkSyluNCnxw-1" value="" style="rounded=0;whiteSpace=wrap;html=1;strokeColor=none;fillColor=#FFFFFF;rotatable=0;resizable=1;movable=0;connectable=0;" parent="1" vertex="1">
                    <mxGeometry x="-110" y="170" width="860" height="2160" as="geometry"/>
                </mxCell>
                <mxCell id="113" style="edgeStyle=orthogonalEdgeStyle;shape=connector;rounded=1;html=1;exitX=0.5;exitY=1;exitDx=0;exitDy=0;labelBackgroundColor=default;fontFamily=Helvetica;fontSize=10;fontColor=#000000;endArrow=blockThin;endFill=1;strokeColor=#000000;strokeWidth=1;" parent="1" edge="1">
                    <mxGeometry relative="1" as="geometry">
                        <mxPoint x="250" y="1050" as="sourcePoint"/>
                    </mxGeometry>
                </mxCell>
                <mxCell id="115" style="edgeStyle=orthogonalEdgeStyle;shape=connector;rounded=1;html=1;exitX=0.5;exitY=1;exitDx=0;exitDy=0;labelBackgroundColor=default;fontFamily=Helvetica;fontSize=10;fontColor=#000000;endArrow=blockThin;endFill=1;strokeColor=#000000;strokeWidth=1;" parent="1" edge="1">
                    <mxGeometry relative="1" as="geometry">
                        <mxPoint x="90" y="1150" as="sourcePoint"/>
                    </mxGeometry>
                </mxCell>
                <mxCell id="0z-KESihsg8ARgf86msd-262" style="edgeStyle=orthogonalEdgeStyle;shape=connector;rounded=0;html=1;exitX=0.25;exitY=1;exitDx=0;exitDy=0;entryX=1;entryY=1;entryDx=0;entryDy=0;entryPerimeter=0;labelBackgroundColor=default;fontFamily=Helvetica;fontSize=10;fontColor=#000000;endArrow=none;endFill=0;strokeColor=#000000;strokeWidth=1;" edge="1" parent="1" source="169" target="188">
                    <mxGeometry relative="1" as="geometry"/>
                </mxCell>
                <mxCell id="0z-KESihsg8ARgf86msd-263" style="edgeStyle=orthogonalEdgeStyle;shape=connector;rounded=0;html=1;exitX=0.5;exitY=1;exitDx=0;exitDy=0;entryX=1;entryY=0;entryDx=0;entryDy=0;entryPerimeter=0;labelBackgroundColor=default;fontFamily=Helvetica;fontSize=10;fontColor=#000000;endArrow=none;endFill=0;strokeColor=#000000;strokeWidth=1;" edge="1" parent="1" source="169" target="197">
                    <mxGeometry relative="1" as="geometry"/>
                </mxCell>
                <mxCell id="0z-KESihsg8ARgf86msd-264" style="edgeStyle=orthogonalEdgeStyle;shape=connector;rounded=0;html=1;exitX=0.5;exitY=1;exitDx=0;exitDy=0;entryX=1;entryY=1;entryDx=0;entryDy=0;entryPerimeter=0;labelBackgroundColor=default;fontFamily=Helvetica;fontSize=10;fontColor=#000000;endArrow=none;endFill=0;strokeColor=#000000;strokeWidth=1;" edge="1" parent="1" source="192" target="197">
                    <mxGeometry relative="1" as="geometry"/>
                </mxCell>
                <mxCell id="0z-KESihsg8ARgf86msd-265" style="edgeStyle=orthogonalEdgeStyle;shape=connector;rounded=0;html=1;exitX=0.5;exitY=1;exitDx=0;exitDy=0;entryX=0.5;entryY=0;entryDx=0;entryDy=0;labelBackgroundColor=default;fontFamily=Helvetica;fontSize=10;fontColor=#000000;endArrow=none;endFill=0;strokeColor=#000000;strokeWidth=1;" edge="1" parent="1" source="159" target="162">
                    <mxGeometry relative="1" as="geometry"/>
                </mxCell>
                <mxCell id="0z-KESihsg8ARgf86msd-267" style="edgeStyle=orthogonalEdgeStyle;shape=connector;rounded=0;html=1;exitX=0.5;exitY=1;exitDx=0;exitDy=0;entryX=0.5;entryY=0;entryDx=0;entryDy=0;labelBackgroundColor=default;fontFamily=Helvetica;fontSize=10;fontColor=#000000;endArrow=none;endFill=0;strokeColor=#000000;strokeWidth=1;" edge="1" parent="1" source="162" target="164">
                    <mxGeometry relative="1" as="geometry"/>
                </mxCell>
                <mxCell id="0z-KESihsg8ARgf86msd-268" style="edgeStyle=orthogonalEdgeStyle;shape=connector;rounded=0;html=1;exitX=0.5;exitY=1;exitDx=0;exitDy=0;entryX=0.5;entryY=0;entryDx=0;entryDy=0;labelBackgroundColor=default;fontFamily=Helvetica;fontSize=10;fontColor=#000000;endArrow=none;endFill=0;strokeColor=#000000;strokeWidth=1;" edge="1" parent="1" source="164" target="166">
                    <mxGeometry relative="1" as="geometry"/>
                </mxCell>
                <mxCell id="0z-KESihsg8ARgf86msd-269" style="edgeStyle=orthogonalEdgeStyle;shape=connector;rounded=0;html=1;exitX=0.5;exitY=1;exitDx=0;exitDy=0;entryX=0.5;entryY=0;entryDx=0;entryDy=0;labelBackgroundColor=default;fontFamily=Helvetica;fontSize=10;fontColor=#000000;endArrow=none;endFill=0;strokeColor=#000000;strokeWidth=1;" edge="1" parent="1" source="166" target="168">
                    <mxGeometry relative="1" as="geometry"/>
                </mxCell>
                <mxCell id="0z-KESihsg8ARgf86msd-270" style="edgeStyle=orthogonalEdgeStyle;shape=connector;rounded=0;html=1;exitX=0.5;exitY=1;exitDx=0;exitDy=0;entryX=0.5;entryY=0;entryDx=0;entryDy=0;labelBackgroundColor=default;fontFamily=Helvetica;fontSize=10;fontColor=#000000;endArrow=none;endFill=0;strokeColor=#000000;strokeWidth=1;" edge="1" parent="1" source="168" target="169">
                    <mxGeometry relative="1" as="geometry"/>
                </mxCell>
                <mxCell id="0z-KESihsg8ARgf86msd-271" style="edgeStyle=orthogonalEdgeStyle;shape=connector;rounded=0;html=1;exitX=0.5;exitY=1;exitDx=0;exitDy=0;entryX=0.5;entryY=0;entryDx=0;entryDy=0;labelBackgroundColor=default;fontFamily=Helvetica;fontSize=10;fontColor=#000000;endArrow=none;endFill=0;strokeColor=#000000;strokeWidth=1;" edge="1" parent="1" source="179" target="182">
                    <mxGeometry relative="1" as="geometry"/>
                </mxCell>
                <mxCell id="0z-KESihsg8ARgf86msd-272" style="edgeStyle=orthogonalEdgeStyle;shape=connector;rounded=0;html=1;exitX=0.5;exitY=1;exitDx=0;exitDy=0;entryX=0.5;entryY=0;entryDx=0;entryDy=0;labelBackgroundColor=default;fontFamily=Helvetica;fontSize=10;fontColor=#000000;endArrow=none;endFill=0;strokeColor=#000000;strokeWidth=1;" edge="1" parent="1" source="179" target="184">
                    <mxGeometry relative="1" as="geometry"/>
                </mxCell>
                <mxCell id="0z-KESihsg8ARgf86msd-273" style="edgeStyle=orthogonalEdgeStyle;shape=connector;rounded=0;html=1;exitX=0.5;exitY=1;exitDx=0;exitDy=0;entryX=1;entryY=0;entryDx=0;entryDy=0;entryPerimeter=0;labelBackgroundColor=default;fontFamily=Helvetica;fontSize=10;fontColor=#000000;endArrow=none;endFill=0;strokeColor=#000000;strokeWidth=1;" edge="1" parent="1" source="184" target="188">
                    <mxGeometry relative="1" as="geometry"/>
                </mxCell>
                <mxCell id="0z-KESihsg8ARgf86msd-274" style="edgeStyle=orthogonalEdgeStyle;shape=connector;rounded=0;html=1;exitX=0;exitY=0.5;exitDx=0;exitDy=0;exitPerimeter=0;entryX=0.5;entryY=0;entryDx=0;entryDy=0;labelBackgroundColor=default;fontFamily=Helvetica;fontSize=10;fontColor=#000000;endArrow=none;endFill=0;strokeColor=#000000;strokeWidth=1;" edge="1" parent="1" source="188" target="190">
                    <mxGeometry relative="1" as="geometry"/>
                </mxCell>
                <mxCell id="0z-KESihsg8ARgf86msd-275" style="edgeStyle=orthogonalEdgeStyle;shape=connector;rounded=0;html=1;exitX=0;exitY=0.5;exitDx=0;exitDy=0;exitPerimeter=0;entryX=0.5;entryY=0;entryDx=0;entryDy=0;labelBackgroundColor=default;fontFamily=Helvetica;fontSize=10;fontColor=#000000;endArrow=none;endFill=0;strokeColor=#000000;strokeWidth=1;" edge="1" parent="1" source="197" target="202">
                    <mxGeometry relative="1" as="geometry"/>
                </mxCell>
                <mxCell id="0z-KESihsg8ARgf86msd-276" style="edgeStyle=orthogonalEdgeStyle;shape=connector;rounded=0;html=1;exitX=0;exitY=0.5;exitDx=0;exitDy=0;exitPerimeter=0;entryX=0.5;entryY=0;entryDx=0;entryDy=0;labelBackgroundColor=default;fontFamily=Helvetica;fontSize=10;fontColor=#000000;endArrow=none;endFill=0;strokeColor=#000000;strokeWidth=1;" edge="1" parent="1" source="197" target="199">
                    <mxGeometry relative="1" as="geometry"/>
                </mxCell>
                <mxCell id="0z-KESihsg8ARgf86msd-277" style="edgeStyle=orthogonalEdgeStyle;shape=connector;rounded=0;html=1;exitX=0.5;exitY=1;exitDx=0;exitDy=0;entryX=0.5;entryY=0;entryDx=0;entryDy=0;labelBackgroundColor=default;fontFamily=Helvetica;fontSize=10;fontColor=#000000;endArrow=none;endFill=0;strokeColor=#000000;strokeWidth=1;" edge="1" parent="1" source="254" target="205">
                    <mxGeometry relative="1" as="geometry"/>
                </mxCell>
                <mxCell id="0z-KESihsg8ARgf86msd-278" style="edgeStyle=orthogonalEdgeStyle;shape=connector;rounded=0;html=1;exitX=0.5;exitY=1;exitDx=0;exitDy=0;entryX=0.5;entryY=0;entryDx=0;entryDy=0;labelBackgroundColor=default;fontFamily=Helvetica;fontSize=10;fontColor=#000000;endArrow=none;endFill=0;strokeColor=#000000;strokeWidth=1;" edge="1" parent="1" source="254" target="256">
                    <mxGeometry relative="1" as="geometry"/>
                </mxCell>
                <mxCell id="0z-KESihsg8ARgf86msd-279" style="edgeStyle=orthogonalEdgeStyle;shape=connector;rounded=0;html=1;exitX=0.5;exitY=1;exitDx=0;exitDy=0;entryX=0.5;entryY=0;entryDx=0;entryDy=0;labelBackgroundColor=default;fontFamily=Helvetica;fontSize=10;fontColor=#000000;endArrow=none;endFill=0;strokeColor=#000000;strokeWidth=1;" edge="1" parent="1" source="254" target="204">
                    <mxGeometry relative="1" as="geometry"/>
                </mxCell>
                <mxCell id="0z-KESihsg8ARgf86msd-280" style="edgeStyle=orthogonalEdgeStyle;shape=connector;rounded=0;html=1;exitX=0.5;exitY=1;exitDx=0;exitDy=0;entryX=0.5;entryY=0;entryDx=0;entryDy=0;labelBackgroundColor=default;fontFamily=Helvetica;fontSize=10;fontColor=#000000;endArrow=none;endFill=0;strokeColor=#000000;strokeWidth=1;" edge="1" parent="1" source="256" target="258">
                    <mxGeometry relative="1" as="geometry"/>
                </mxCell>
                <mxCell id="0z-KESihsg8ARgf86msd-281" style="edgeStyle=orthogonalEdgeStyle;shape=connector;rounded=0;html=1;exitX=0.5;exitY=1;exitDx=0;exitDy=0;entryX=0.5;entryY=0;entryDx=0;entryDy=0;labelBackgroundColor=default;fontFamily=Helvetica;fontSize=10;fontColor=#000000;endArrow=none;endFill=0;strokeColor=#000000;strokeWidth=1;" edge="1" parent="1" source="258" target="259">
                    <mxGeometry relative="1" as="geometry"/>
                </mxCell>
                <mxCell id="0z-KESihsg8ARgf86msd-284" style="edgeStyle=orthogonalEdgeStyle;shape=connector;rounded=0;html=1;exitX=0.5;exitY=1;exitDx=0;exitDy=0;entryX=1;entryY=1;entryDx=0;entryDy=0;entryPerimeter=0;labelBackgroundColor=default;fontFamily=Helvetica;fontSize=10;fontColor=#000000;endArrow=none;endFill=0;strokeColor=#000000;strokeWidth=1;" edge="1" parent="1" source="211" target="215">
                    <mxGeometry relative="1" as="geometry"/>
                </mxCell>
                <mxCell id="0z-KESihsg8ARgf86msd-285" style="edgeStyle=orthogonalEdgeStyle;shape=connector;rounded=0;html=1;exitX=0;exitY=0.5;exitDx=0;exitDy=0;exitPerimeter=0;entryX=0.5;entryY=0;entryDx=0;entryDy=0;labelBackgroundColor=default;fontFamily=Helvetica;fontSize=10;fontColor=#000000;endArrow=none;endFill=0;strokeColor=#000000;strokeWidth=1;" edge="1" parent="1" source="215" target="217">
                    <mxGeometry relative="1" as="geometry"/>
                </mxCell>
                <mxCell id="0z-KESihsg8ARgf86msd-290" style="edgeStyle=orthogonalEdgeStyle;shape=connector;rounded=0;html=1;exitX=0;exitY=0.5;exitDx=0;exitDy=0;exitPerimeter=0;entryX=0.5;entryY=0;entryDx=0;entryDy=0;labelBackgroundColor=default;fontFamily=Helvetica;fontSize=10;fontColor=#000000;endArrow=none;endFill=0;strokeColor=#000000;strokeWidth=1;" edge="1" parent="1" source="250" target="246">
                    <mxGeometry relative="1" as="geometry"/>
                </mxCell>
                <mxCell id="0z-KESihsg8ARgf86msd-291" style="edgeStyle=orthogonalEdgeStyle;shape=connector;rounded=0;html=1;exitX=0;exitY=0.5;exitDx=0;exitDy=0;exitPerimeter=0;entryX=0.5;entryY=0;entryDx=0;entryDy=0;labelBackgroundColor=default;fontFamily=Helvetica;fontSize=10;fontColor=#000000;endArrow=none;endFill=0;strokeColor=#00FFFF;strokeWidth=1;" edge="1" parent="1" source="243" target="244">
                    <mxGeometry relative="1" as="geometry"/>
                </mxCell>
                <mxCell id="0z-KESihsg8ARgf86msd-292" style="edgeStyle=orthogonalEdgeStyle;shape=connector;rounded=0;html=1;exitX=0;exitY=0.5;exitDx=0;exitDy=0;exitPerimeter=0;entryX=0.5;entryY=0;entryDx=0;entryDy=0;labelBackgroundColor=default;fontFamily=Helvetica;fontSize=10;fontColor=#000000;endArrow=none;endFill=0;strokeColor=#66CC00;strokeWidth=1;" edge="1" parent="1" source="238" target="239">
                    <mxGeometry relative="1" as="geometry"/>
                </mxCell>
                <mxCell id="0z-KESihsg8ARgf86msd-293" style="edgeStyle=orthogonalEdgeStyle;shape=connector;rounded=0;html=1;exitX=0.5;exitY=1;exitDx=0;exitDy=0;entryX=1;entryY=0;entryDx=0;entryDy=0;entryPerimeter=0;labelBackgroundColor=default;fontFamily=Helvetica;fontSize=10;fontColor=#000000;endArrow=none;endFill=0;strokeColor=#66CC00;strokeWidth=1;" edge="1" parent="1" source="220" target="238">
                    <mxGeometry relative="1" as="geometry"/>
                </mxCell>
                <mxCell id="0z-KESihsg8ARgf86msd-295" style="edgeStyle=orthogonalEdgeStyle;shape=connector;rounded=0;html=1;exitX=0.5;exitY=1;exitDx=0;exitDy=0;entryX=1;entryY=1;entryDx=0;entryDy=0;entryPerimeter=0;labelBackgroundColor=default;fontFamily=Helvetica;fontSize=10;fontColor=#000000;endArrow=none;endFill=0;strokeColor=#66CC00;strokeWidth=1;" edge="1" parent="1" source="233" target="238">
                    <mxGeometry relative="1" as="geometry"/>
                </mxCell>
                <mxCell id="0z-KESihsg8ARgf86msd-296" style="edgeStyle=orthogonalEdgeStyle;shape=connector;rounded=0;html=1;exitX=0.75;exitY=1;exitDx=0;exitDy=0;entryX=1;entryY=0;entryDx=0;entryDy=0;entryPerimeter=0;labelBackgroundColor=default;fontFamily=Helvetica;fontSize=10;fontColor=#000000;endArrow=none;endFill=0;strokeColor=#000000;strokeWidth=1;" edge="1" parent="1" source="217" target="250">
                    <mxGeometry relative="1" as="geometry"/>
                </mxCell>
                <mxCell id="0z-KESihsg8ARgf86msd-297" style="edgeStyle=orthogonalEdgeStyle;shape=connector;rounded=0;html=1;entryX=1;entryY=1;entryDx=0;entryDy=0;entryPerimeter=0;labelBackgroundColor=default;fontFamily=Helvetica;fontSize=10;fontColor=#000000;endArrow=none;endFill=0;strokeColor=#00FFFF;strokeWidth=1;exitX=0.5;exitY=1;exitDx=0;exitDy=0;" edge="1" parent="1" source="217" target="243">
                    <mxGeometry relative="1" as="geometry">
                        <mxPoint x="361" y="960" as="sourcePoint"/>
                    </mxGeometry>
                </mxCell>
                <mxCell id="0z-KESihsg8ARgf86msd-298" style="edgeStyle=orthogonalEdgeStyle;shape=connector;rounded=0;html=1;exitX=0.5;exitY=1;exitDx=0;exitDy=0;entryX=1;entryY=1;entryDx=0;entryDy=0;entryPerimeter=0;labelBackgroundColor=default;fontFamily=Helvetica;fontSize=10;fontColor=#000000;endArrow=none;endFill=0;strokeColor=#000000;strokeWidth=1;" edge="1" parent="1" source="245" target="250">
                    <mxGeometry relative="1" as="geometry"/>
                </mxCell>
                <mxCell id="0z-KESihsg8ARgf86msd-301" style="edgeStyle=orthogonalEdgeStyle;shape=connector;rounded=0;html=1;exitX=0.75;exitY=1;exitDx=0;exitDy=0;entryX=1;entryY=0;entryDx=0;entryDy=0;entryPerimeter=0;labelBackgroundColor=default;fontFamily=Helvetica;fontSize=10;fontColor=#000000;endArrow=none;endFill=0;strokeColor=#000000;strokeWidth=1;" edge="1" parent="1" source="190" target="215">
                    <mxGeometry relative="1" as="geometry"/>
                </mxCell>
                <mxCell id="144" value="天皇" parent="0"/>
                <mxCell id="157" value="应神&lt;br style=&quot;font-size: 12px&quot;&gt;天&lt;br style=&quot;font-size: 12px&quot;&gt;皇" style="text;html=1;strokeColor=none;fillColor=none;align=center;verticalAlign=middle;whiteSpace=wrap;rounded=0;fontFamily=Helvetica;fontSize=12;fontColor=#000000;" vertex="1" parent="144">
                    <mxGeometry x="435" y="210" width="20" height="70" as="geometry"/>
                </mxCell>
                <mxCell id="159" value="？" style="rounded=1;whiteSpace=wrap;html=1;fontFamily=Helvetica;fontSize=14;fontColor=#000000;strokeWidth=2;fillColor=#E6E6E6;strokeColor=none;" vertex="1" parent="144">
                    <mxGeometry x="405" y="216" width="30" height="60" as="geometry"/>
                </mxCell>
                <mxCell id="162" value="" style="ellipse;whiteSpace=wrap;html=1;aspect=fixed;fontFamily=Helvetica;fontSize=10;fontColor=#000000;fillColor=#E6E6E6;strokeColor=none;" vertex="1" parent="144">
                    <mxGeometry x="410" y="300" width="20" height="20" as="geometry"/>
                </mxCell>
                <mxCell id="164" value="" style="ellipse;whiteSpace=wrap;html=1;aspect=fixed;fontFamily=Helvetica;fontSize=10;fontColor=#000000;fillColor=#E6E6E6;strokeColor=none;" vertex="1" parent="144">
                    <mxGeometry x="410" y="340" width="20" height="20" as="geometry"/>
                </mxCell>
                <mxCell id="166" value="" style="ellipse;whiteSpace=wrap;html=1;aspect=fixed;fontFamily=Helvetica;fontSize=10;fontColor=#000000;fillColor=#E6E6E6;strokeColor=none;" vertex="1" parent="144">
                    <mxGeometry x="410" y="380" width="20" height="20" as="geometry"/>
                </mxCell>
                <mxCell id="168" value="彦&lt;br&gt;主&lt;br&gt;人&lt;br&gt;王" style="rounded=1;whiteSpace=wrap;html=1;fontFamily=Helvetica;fontSize=14;fontColor=#000000;strokeWidth=2;fillColor=#E6E6E6;strokeColor=none;" vertex="1" parent="144">
                    <mxGeometry x="405" y="430" width="30" height="80" as="geometry"/>
                </mxCell>
                <mxCell id="169" value="男&lt;br&gt;大&lt;br&gt;迹&lt;br&gt;王" style="rounded=1;whiteSpace=wrap;html=1;fontFamily=Helvetica;fontSize=14;fontColor=#000000;strokeWidth=2;fillColor=#E6E6E6;strokeColor=none;" vertex="1" parent="144">
                    <mxGeometry x="405" y="560" width="30" height="80" as="geometry"/>
                </mxCell>
                <mxCell id="170" value="继体&lt;br style=&quot;font-size: 12px&quot;&gt;天&lt;br style=&quot;font-size: 12px&quot;&gt;皇" style="text;html=1;strokeColor=none;fillColor=none;align=center;verticalAlign=middle;whiteSpace=wrap;rounded=0;fontFamily=Helvetica;fontSize=12;fontColor=#000000;" vertex="1" parent="144">
                    <mxGeometry x="435" y="560" width="20" height="70" as="geometry"/>
                </mxCell>
                <mxCell id="176" value="仁&lt;br&gt;贤&lt;br style=&quot;font-size: 12px&quot;&gt;天&lt;br style=&quot;font-size: 12px&quot;&gt;皇" style="text;html=1;strokeColor=none;fillColor=none;align=center;verticalAlign=middle;whiteSpace=wrap;rounded=0;fontFamily=Helvetica;fontSize=12;fontColor=#000000;" vertex="1" parent="144">
                    <mxGeometry x="206" y="430" width="20" height="70" as="geometry"/>
                </mxCell>
                <mxCell id="179" value="？" style="rounded=1;whiteSpace=wrap;html=1;fontFamily=Helvetica;fontSize=14;fontColor=#000000;strokeWidth=2;fillColor=#E6E6E6;strokeColor=none;labelPosition=center;verticalLabelPosition=middle;align=center;verticalAlign=middle;spacing=2;" vertex="1" parent="144">
                    <mxGeometry x="176" y="436" width="30" height="60" as="geometry"/>
                </mxCell>
                <mxCell id="181" value="武&lt;br&gt;烈&lt;br style=&quot;font-size: 12px&quot;&gt;天&lt;br style=&quot;font-size: 12px&quot;&gt;皇" style="text;html=1;strokeColor=none;fillColor=none;align=center;verticalAlign=middle;whiteSpace=wrap;rounded=0;fontFamily=Helvetica;fontSize=12;fontColor=#000000;" vertex="1" parent="144">
                    <mxGeometry x="156" y="565" width="20" height="70" as="geometry"/>
                </mxCell>
                <mxCell id="182" value="？" style="rounded=1;whiteSpace=wrap;html=1;fontFamily=Helvetica;fontSize=14;fontColor=#000000;strokeWidth=2;fillColor=#E6E6E6;strokeColor=none;" vertex="1" parent="144">
                    <mxGeometry x="126" y="571" width="30" height="60" as="geometry"/>
                </mxCell>
                <mxCell id="184" value="手&lt;br&gt;白&lt;br&gt;香" style="rounded=1;whiteSpace=wrap;html=1;fontFamily=Helvetica;fontSize=14;fontColor=#ffffff;strokeWidth=2;fillColor=#d80073;strokeColor=none;" vertex="1" parent="144">
                    <mxGeometry x="224" y="571" width="30" height="60" as="geometry"/>
                </mxCell>
                <mxCell id="188" value="" style="strokeWidth=1;html=1;shape=mxgraph.flowchart.annotation_1;align=left;pointerEvents=1;fontFamily=Helvetica;fontSize=10;fontColor=#000000;fillColor=#E6E6E6;strokeColor=#000000;rotation=-90;" vertex="1" parent="144">
                    <mxGeometry x="321.52" y="587.61" width="8.48" height="173.84" as="geometry"/>
                </mxCell>
                <mxCell id="189" value="钦&lt;br&gt;明&lt;br style=&quot;font-size: 12px&quot;&gt;天&lt;br style=&quot;font-size: 12px&quot;&gt;皇" style="text;html=1;strokeColor=none;fillColor=none;align=center;verticalAlign=middle;whiteSpace=wrap;rounded=0;fontFamily=Helvetica;fontSize=12;fontColor=#000000;" vertex="1" parent="144">
                    <mxGeometry x="341" y="729" width="20" height="70" as="geometry"/>
                </mxCell>
                <mxCell id="0z-KESihsg8ARgf86msd-321" style="edgeStyle=orthogonalEdgeStyle;rounded=0;comic=0;html=1;exitX=0.5;exitY=1;exitDx=0;exitDy=0;entryX=1;entryY=1;entryDx=0;entryDy=0;entryPerimeter=0;labelBackgroundColor=default;fontFamily=Helvetica;fontSize=10;fontColor=#000000;endArrow=none;endFill=0;strokeColor=#0000FF;strokeWidth=1;" edge="1" parent="144" source="190" target="0z-KESihsg8ARgf86msd-319">
                    <mxGeometry relative="1" as="geometry"/>
                </mxCell>
                <mxCell id="0z-KESihsg8ARgf86msd-325" style="edgeStyle=orthogonalEdgeStyle;rounded=0;comic=0;html=1;exitX=0.25;exitY=1;exitDx=0;exitDy=0;entryX=1;entryY=1;entryDx=0;entryDy=0;entryPerimeter=0;labelBackgroundColor=default;fontFamily=Helvetica;fontSize=10;fontColor=#000000;endArrow=none;endFill=0;strokeColor=#FF8000;strokeWidth=1;" edge="1" parent="144" source="190" target="0z-KESihsg8ARgf86msd-323">
                    <mxGeometry relative="1" as="geometry"/>
                </mxCell>
                <mxCell id="190" value="？" style="rounded=1;whiteSpace=wrap;html=1;fontFamily=Helvetica;fontSize=14;fontColor=#000000;strokeWidth=2;fillColor=#E6E6E6;strokeColor=none;" vertex="1" parent="144">
                    <mxGeometry x="311" y="735" width="30" height="60" as="geometry"/>
                </mxCell>
                <mxCell id="192" value="目&lt;br&gt;子&lt;br&gt;媛" style="text;html=1;strokeColor=none;fillColor=none;align=center;verticalAlign=middle;whiteSpace=wrap;rounded=0;fontFamily=Helvetica;fontSize=12;fontColor=#000000;" vertex="1" parent="144">
                    <mxGeometry x="504" y="584" width="20" height="49" as="geometry"/>
                </mxCell>
                <mxCell id="197" value="" style="strokeWidth=1;html=1;shape=mxgraph.flowchart.annotation_1;align=left;pointerEvents=1;fontFamily=Helvetica;fontSize=10;fontColor=#000000;fillColor=#E6E6E6;strokeColor=#000000;rotation=-90;" vertex="1" parent="144">
                    <mxGeometry x="464.5" y="627.5" width="4.5" height="94" as="geometry"/>
                </mxCell>
                <mxCell id="198" value="宣&lt;br&gt;化&lt;br style=&quot;font-size: 12px&quot;&gt;天&lt;br style=&quot;font-size: 12px&quot;&gt;皇" style="text;html=1;strokeColor=none;fillColor=none;align=center;verticalAlign=middle;whiteSpace=wrap;rounded=0;fontFamily=Helvetica;fontSize=12;fontColor=#000000;" vertex="1" parent="144">
                    <mxGeometry x="451" y="729" width="20" height="70" as="geometry"/>
                </mxCell>
                <mxCell id="199" value="？" style="rounded=1;whiteSpace=wrap;html=1;fontFamily=Helvetica;fontSize=14;fontColor=#000000;strokeWidth=2;fillColor=#E6E6E6;strokeColor=none;" vertex="1" parent="144">
                    <mxGeometry x="421" y="735" width="30" height="60" as="geometry"/>
                </mxCell>
                <mxCell id="201" value="安&lt;br&gt;闲&lt;br style=&quot;font-size: 12px&quot;&gt;天&lt;br style=&quot;font-size: 12px&quot;&gt;皇" style="text;html=1;strokeColor=none;fillColor=none;align=center;verticalAlign=middle;whiteSpace=wrap;rounded=0;fontFamily=Helvetica;fontSize=12;fontColor=#000000;" vertex="1" parent="144">
                    <mxGeometry x="521" y="729" width="20" height="70" as="geometry"/>
                </mxCell>
                <mxCell id="202" value="？" style="rounded=1;whiteSpace=wrap;html=1;fontFamily=Helvetica;fontSize=14;fontColor=#000000;strokeWidth=2;fillColor=#E6E6E6;strokeColor=none;" vertex="1" parent="144">
                    <mxGeometry x="491" y="735" width="30" height="60" as="geometry"/>
                </mxCell>
                <mxCell id="0z-KESihsg8ARgf86msd-320" style="edgeStyle=orthogonalEdgeStyle;rounded=0;comic=0;html=1;exitX=0.5;exitY=1;exitDx=0;exitDy=0;entryX=1;entryY=0;entryDx=0;entryDy=0;entryPerimeter=0;labelBackgroundColor=default;fontFamily=Helvetica;fontSize=10;fontColor=#000000;endArrow=none;endFill=0;strokeColor=#0000FF;strokeWidth=1;" edge="1" parent="144" source="204" target="0z-KESihsg8ARgf86msd-319">
                    <mxGeometry relative="1" as="geometry"/>
                </mxCell>
                <mxCell id="204" value="坚&lt;br&gt;盐&lt;br&gt;媛" style="text;html=1;strokeColor=none;fillColor=none;align=center;verticalAlign=middle;whiteSpace=wrap;rounded=0;fontFamily=Helvetica;fontSize=12;fontColor=#000000;" vertex="1" parent="144">
                    <mxGeometry x="80" y="750.5" width="20" height="49" as="geometry"/>
                </mxCell>
                <mxCell id="0z-KESihsg8ARgf86msd-324" style="edgeStyle=orthogonalEdgeStyle;rounded=0;comic=0;html=1;exitX=0.5;exitY=1;exitDx=0;exitDy=0;entryX=1;entryY=0;entryDx=0;entryDy=0;entryPerimeter=0;labelBackgroundColor=default;fontFamily=Helvetica;fontSize=10;fontColor=#000000;endArrow=none;endFill=0;strokeColor=#FF8000;strokeWidth=1;" edge="1" parent="144" source="205" target="0z-KESihsg8ARgf86msd-323">
                    <mxGeometry relative="1" as="geometry"/>
                </mxCell>
                <mxCell id="205" value="小&lt;br&gt;姊&lt;br&gt;君" style="text;html=1;strokeColor=none;fillColor=none;align=center;verticalAlign=middle;whiteSpace=wrap;rounded=0;fontFamily=Helvetica;fontSize=12;fontColor=#000000;" vertex="1" parent="144">
                    <mxGeometry x="241" y="750.5" width="20" height="49" as="geometry"/>
                </mxCell>
                <mxCell id="211" value="石姬" style="text;html=1;strokeColor=none;fillColor=none;align=center;verticalAlign=middle;whiteSpace=wrap;rounded=0;fontFamily=Helvetica;fontSize=12;fontColor=#000000;" vertex="1" parent="144">
                    <mxGeometry x="378" y="762" width="20" height="33" as="geometry"/>
                </mxCell>
                <mxCell id="215" value="" style="strokeWidth=1;html=1;shape=mxgraph.flowchart.annotation_1;align=left;pointerEvents=1;fontFamily=Helvetica;fontSize=10;fontColor=#000000;fillColor=#E6E6E6;strokeColor=#000000;rotation=-90;" vertex="1" parent="144">
                    <mxGeometry x="357.88" y="801.13" width="6" height="54.25" as="geometry"/>
                </mxCell>
                <mxCell id="216" value="敏&lt;br&gt;达&lt;br style=&quot;font-size: 12px&quot;&gt;天&lt;br style=&quot;font-size: 12px&quot;&gt;皇" style="text;html=1;strokeColor=none;fillColor=none;align=center;verticalAlign=middle;whiteSpace=wrap;rounded=0;fontFamily=Helvetica;fontSize=12;fontColor=#000000;" vertex="1" parent="144">
                    <mxGeometry x="376" y="901" width="20" height="70" as="geometry"/>
                </mxCell>
                <mxCell id="217" value="？" style="rounded=1;whiteSpace=wrap;html=1;fontFamily=Helvetica;fontSize=14;fontColor=#000000;strokeWidth=2;fillColor=#E6E6E6;strokeColor=none;" vertex="1" parent="144">
                    <mxGeometry x="346" y="907" width="30" height="60" as="geometry"/>
                </mxCell>
                <mxCell id="219" value="用&lt;br&gt;明&lt;br style=&quot;font-size: 12px&quot;&gt;天&lt;br style=&quot;font-size: 12px&quot;&gt;皇" style="text;html=1;strokeColor=none;fillColor=none;align=center;verticalAlign=middle;whiteSpace=wrap;rounded=0;fontFamily=Helvetica;fontSize=12;fontColor=#000000;" vertex="1" parent="144">
                    <mxGeometry x="165.75" y="904" width="20" height="70" as="geometry"/>
                </mxCell>
                <mxCell id="220" value="？" style="rounded=1;whiteSpace=wrap;html=1;fontFamily=Helvetica;fontSize=14;fontColor=#000000;strokeWidth=2;fillColor=#E6E6E6;strokeColor=none;" vertex="1" parent="144">
                    <mxGeometry x="137.75" y="906" width="30" height="60" as="geometry"/>
                </mxCell>
                <mxCell id="222" value="推古&lt;br style=&quot;font-size: 12px&quot;&gt;天&lt;br style=&quot;font-size: 12px&quot;&gt;皇" style="text;html=1;strokeColor=none;fillColor=none;align=center;verticalAlign=middle;whiteSpace=wrap;rounded=0;fontFamily=Helvetica;fontSize=12;fontColor=#000000;" vertex="1" parent="144">
                    <mxGeometry x="223" y="901" width="20" height="70" as="geometry"/>
                </mxCell>
                <mxCell id="0z-KESihsg8ARgf86msd-330" style="edgeStyle=orthogonalEdgeStyle;rounded=0;comic=0;html=1;exitX=0.5;exitY=1;exitDx=0;exitDy=0;entryX=1;entryY=0;entryDx=0;entryDy=0;entryPerimeter=0;labelBackgroundColor=default;fontFamily=Helvetica;fontSize=10;fontColor=#000000;endArrow=none;endFill=0;strokeColor=#00FFFF;strokeWidth=1;" edge="1" parent="144" source="223" target="243">
                    <mxGeometry relative="1" as="geometry"/>
                </mxCell>
                <mxCell id="223" value="额&lt;br&gt;田&lt;br&gt;部" style="rounded=1;whiteSpace=wrap;html=1;fontFamily=Helvetica;fontSize=14;fontColor=#ffffff;strokeWidth=2;fillColor=#d80073;strokeColor=none;" vertex="1" parent="144">
                    <mxGeometry x="193" y="907" width="30" height="60" as="geometry"/>
                </mxCell>
                <mxCell id="230" value="崇&lt;br&gt;峻&lt;br style=&quot;font-size: 12px&quot;&gt;天&lt;br style=&quot;font-size: 12px&quot;&gt;皇" style="text;html=1;strokeColor=none;fillColor=none;align=center;verticalAlign=middle;whiteSpace=wrap;rounded=0;fontFamily=Helvetica;fontSize=12;fontColor=#000000;" vertex="1" parent="144">
                    <mxGeometry x="320" y="902" width="20" height="70" as="geometry"/>
                </mxCell>
                <mxCell id="231" value="泊&lt;br&gt;濑&lt;br&gt;部" style="rounded=1;whiteSpace=wrap;html=1;fontFamily=Helvetica;fontSize=14;fontColor=#000000;strokeWidth=2;fillColor=#E6E6E6;strokeColor=none;" vertex="1" parent="144">
                    <mxGeometry x="290" y="907" width="30" height="60" as="geometry"/>
                </mxCell>
                <mxCell id="233" value="穴&lt;br&gt;穗&lt;br&gt;部&lt;br&gt;间&lt;br&gt;人" style="rounded=1;whiteSpace=wrap;html=1;fontFamily=Helvetica;fontSize=14;fontColor=#ffffff;strokeWidth=2;fillColor=#d80073;strokeColor=none;" vertex="1" parent="144">
                    <mxGeometry x="252" y="906.5" width="30" height="100" as="geometry"/>
                </mxCell>
                <mxCell id="238" value="" style="strokeWidth=1;html=1;shape=mxgraph.flowchart.annotation_1;align=left;pointerEvents=1;fontFamily=Helvetica;fontSize=10;fontColor=#000000;fillColor=#66CC00;strokeColor=#66CC00;rotation=-90;" vertex="1" parent="144">
                    <mxGeometry x="208.29" y="971.76" width="3.12" height="114.51" as="geometry"/>
                </mxCell>
                <mxCell id="239" value="厩&lt;br&gt;户" style="rounded=1;whiteSpace=wrap;html=1;fontFamily=Helvetica;fontSize=14;fontColor=#000000;strokeWidth=2;fillColor=#E6E6E6;strokeColor=none;" vertex="1" parent="144">
                    <mxGeometry x="195" y="1079" width="30" height="60" as="geometry"/>
                </mxCell>
                <mxCell id="243" value="" style="strokeWidth=1;html=1;shape=mxgraph.flowchart.annotation_1;align=left;pointerEvents=1;fontFamily=Helvetica;fontSize=10;fontColor=#000000;fillColor=#E6E6E6;strokeColor=#00FFFF;rotation=-90;" vertex="1" parent="144">
                    <mxGeometry x="282.5" y="942" width="4.5" height="152.5" as="geometry"/>
                </mxCell>
                <mxCell id="244" value="竹&lt;br&gt;田" style="rounded=1;whiteSpace=wrap;html=1;fontFamily=Helvetica;fontSize=14;fontColor=#000000;strokeWidth=2;fillColor=#E6E6E6;strokeColor=none;" vertex="1" parent="144">
                    <mxGeometry x="269.78" y="1079" width="30" height="60" as="geometry"/>
                </mxCell>
                <mxCell id="245" value="广姬" style="text;html=1;strokeColor=none;fillColor=none;align=center;verticalAlign=middle;whiteSpace=wrap;rounded=0;fontFamily=Helvetica;fontSize=12;fontColor=#000000;" vertex="1" parent="144">
                    <mxGeometry x="431" y="926.5" width="20" height="33" as="geometry"/>
                </mxCell>
                <mxCell id="246" value="押&lt;br&gt;坂&lt;br&gt;彦&lt;br&gt;人" style="rounded=1;whiteSpace=wrap;html=1;fontFamily=Helvetica;fontSize=14;fontColor=#000000;strokeWidth=2;fillColor=#E6E6E6;strokeColor=none;" vertex="1" parent="144">
                    <mxGeometry x="389.75" y="1079" width="30" height="80" as="geometry"/>
                </mxCell>
                <mxCell id="250" value="" style="strokeWidth=1;html=1;shape=mxgraph.flowchart.annotation_1;align=left;pointerEvents=1;fontFamily=Helvetica;fontSize=10;fontColor=#000000;fillColor=#E6E6E6;strokeColor=#000000;rotation=-90;" vertex="1" parent="144">
                    <mxGeometry x="403" y="967.76" width="3.5" height="73" as="geometry"/>
                </mxCell>
                <mxCell id="254" value="苏&lt;br&gt;我&lt;br&gt;稻&lt;br&gt;目" style="text;html=1;strokeColor=none;fillColor=none;align=center;verticalAlign=middle;whiteSpace=wrap;rounded=0;fontFamily=Helvetica;fontSize=12;fontColor=#000000;" vertex="1" parent="144">
                    <mxGeometry x="80" y="640" width="20" height="60" as="geometry"/>
                </mxCell>
                <mxCell id="256" value="苏&lt;br&gt;我&lt;br&gt;马&lt;br&gt;子" style="text;html=1;strokeColor=none;fillColor=none;align=center;verticalAlign=middle;whiteSpace=wrap;rounded=0;fontFamily=Helvetica;fontSize=12;fontColor=#000000;" vertex="1" parent="144">
                    <mxGeometry x="21" y="750.5" width="20" height="58.5" as="geometry"/>
                </mxCell>
                <mxCell id="258" value="苏&lt;br&gt;我&lt;br&gt;虾&lt;br&gt;夷" style="text;html=1;strokeColor=none;fillColor=none;align=center;verticalAlign=middle;whiteSpace=wrap;rounded=0;fontFamily=Helvetica;fontSize=12;fontColor=#000000;" vertex="1" parent="144">
                    <mxGeometry x="21" y="906.5" width="20" height="58.5" as="geometry"/>
                </mxCell>
                <mxCell id="259" value="苏&lt;br&gt;我&lt;br&gt;入&lt;br&gt;鹿" style="text;html=1;strokeColor=none;fillColor=none;align=center;verticalAlign=middle;whiteSpace=wrap;rounded=0;fontFamily=Helvetica;fontSize=12;fontColor=#000000;" vertex="1" parent="144">
                    <mxGeometry x="21" y="1080.5" width="20" height="58.5" as="geometry"/>
                </mxCell>
                <mxCell id="0z-KESihsg8ARgf86msd-326" style="edgeStyle=orthogonalEdgeStyle;rounded=0;comic=0;html=1;exitX=0;exitY=0.5;exitDx=0;exitDy=0;exitPerimeter=0;entryX=0.5;entryY=0;entryDx=0;entryDy=0;labelBackgroundColor=default;fontFamily=Helvetica;fontSize=10;fontColor=#000000;endArrow=none;endFill=0;strokeColor=#0000FF;strokeWidth=1;" edge="1" parent="144" source="0z-KESihsg8ARgf86msd-319" target="223">
                    <mxGeometry relative="1" as="geometry"/>
                </mxCell>
                <mxCell id="0z-KESihsg8ARgf86msd-327" style="edgeStyle=orthogonalEdgeStyle;rounded=0;comic=0;html=1;exitX=0;exitY=0.5;exitDx=0;exitDy=0;exitPerimeter=0;entryX=0.5;entryY=0;entryDx=0;entryDy=0;labelBackgroundColor=default;fontFamily=Helvetica;fontSize=10;fontColor=#000000;endArrow=none;endFill=0;strokeColor=#0000FF;strokeWidth=1;" edge="1" parent="144" source="0z-KESihsg8ARgf86msd-319" target="220">
                    <mxGeometry relative="1" as="geometry"/>
                </mxCell>
                <mxCell id="0z-KESihsg8ARgf86msd-319" value="" style="strokeWidth=1;html=1;shape=mxgraph.flowchart.annotation_1;align=left;pointerEvents=1;fontFamily=Helvetica;fontSize=10;fontColor=#000000;fillColor=#E6E6E6;strokeColor=#0000FF;rotation=-90;" vertex="1" parent="144">
                    <mxGeometry x="205.16" y="722.42" width="5.57" height="235.85" as="geometry"/>
                </mxCell>
                <mxCell id="0z-KESihsg8ARgf86msd-328" style="edgeStyle=orthogonalEdgeStyle;rounded=0;comic=0;html=1;exitX=0;exitY=0.5;exitDx=0;exitDy=0;exitPerimeter=0;entryX=0.5;entryY=0;entryDx=0;entryDy=0;labelBackgroundColor=default;fontFamily=Helvetica;fontSize=10;fontColor=#000000;endArrow=none;endFill=0;strokeColor=#FF8000;strokeWidth=1;" edge="1" parent="144" source="0z-KESihsg8ARgf86msd-323" target="233">
                    <mxGeometry relative="1" as="geometry"/>
                </mxCell>
                <mxCell id="0z-KESihsg8ARgf86msd-329" style="edgeStyle=orthogonalEdgeStyle;rounded=0;comic=0;html=1;exitX=0;exitY=0.5;exitDx=0;exitDy=0;exitPerimeter=0;entryX=0.5;entryY=0;entryDx=0;entryDy=0;labelBackgroundColor=default;fontFamily=Helvetica;fontSize=10;fontColor=#000000;endArrow=none;endFill=0;strokeColor=#FF8000;strokeWidth=1;" edge="1" parent="144" source="0z-KESihsg8ARgf86msd-323" target="231">
                    <mxGeometry relative="1" as="geometry"/>
                </mxCell>
                <mxCell id="0z-KESihsg8ARgf86msd-323" value="" style="strokeWidth=1;html=1;shape=mxgraph.flowchart.annotation_1;align=left;pointerEvents=1;fontFamily=Helvetica;fontSize=10;fontColor=#000000;fillColor=#E6E6E6;strokeColor=#FF8000;rotation=-90;" vertex="1" parent="144">
                    <mxGeometry x="282.09" y="797.02" width="5.38" height="67.05" as="geometry"/>
                </mxCell>
            </root>
        </mxGraphModel>
    </diagram>
    <diagram id="4xsPe_f83jfVcgDi91cv" name="Page-2">
        <mxGraphModel dx="644" dy="515" grid="1" gridSize="10" guides="1" tooltips="1" connect="1" arrows="1" fold="1" page="1" pageScale="1" pageWidth="827" pageHeight="1169" math="0" shadow="0">
            <root>
                <mxCell id="maXXn7bn016vS71_WHPq-0"/>
                <mxCell id="maXXn7bn016vS71_WHPq-1" parent="maXXn7bn016vS71_WHPq-0"/>
                <mxCell id="wkJRKBSFLRapsp1ITTY7-0" value="" style="rounded=0;whiteSpace=wrap;html=1;fillColor=#FFFFFF;strokeColor=none;connectable=0;container=1;collapsible=0;recursiveResize=0;movable=0;rotatable=0;cloneable=0;deletable=0;" parent="maXXn7bn016vS71_WHPq-1" vertex="1">
                    <mxGeometry x="290" y="100" width="550" height="900" as="geometry"/>
                </mxCell>
                <mxCell id="wkJRKBSFLRapsp1ITTY7-1" style="edgeStyle=orthogonalEdgeStyle;shape=connector;rounded=1;html=1;exitX=0.5;exitY=1;exitDx=0;exitDy=0;entryX=0.5;entryY=0;entryDx=0;entryDy=0;labelBackgroundColor=default;fontFamily=Helvetica;fontSize=16;fontColor=#000000;endArrow=blockThin;endFill=1;strokeColor=#000000;strokeWidth=1;" parent="wkJRKBSFLRapsp1ITTY7-0" source="wkJRKBSFLRapsp1ITTY7-2" target="wkJRKBSFLRapsp1ITTY7-5" edge="1">
                    <mxGeometry relative="1" as="geometry"/>
                </mxCell>
                <mxCell id="wkJRKBSFLRapsp1ITTY7-2" value="&lt;div style=&quot;font-size: 16px&quot;&gt;&lt;div style=&quot;font-size: 16px&quot;&gt;&lt;div style=&quot;font-size: 16px&quot;&gt;&lt;div style=&quot;font-size: 16px&quot;&gt;&lt;div style=&quot;font-size: 16px&quot;&gt;彦火火出见&lt;/div&gt;&lt;/div&gt;&lt;/div&gt;&lt;/div&gt;&lt;div style=&quot;font-size: 16px&quot;&gt;&lt;/div&gt;&lt;/div&gt;" style="rounded=1;whiteSpace=wrap;html=1;fillColor=#E6E6E6;fontColor=#000000;fontSize=16;strokeColor=none;strokeWidth=2;" parent="wkJRKBSFLRapsp1ITTY7-0" vertex="1">
                    <mxGeometry x="220" y="52" width="90" height="30" as="geometry"/>
                </mxCell>
                <mxCell id="wkJRKBSFLRapsp1ITTY7-3" value="&lt;div style=&quot;font-size: 14px&quot;&gt;&lt;div style=&quot;font-size: 14px&quot;&gt;&lt;div style=&quot;font-size: 14px&quot;&gt;&lt;div style=&quot;font-size: 14px&quot;&gt;&lt;div&gt;神&lt;span&gt;武&lt;/span&gt;&lt;span&gt;天&lt;/span&gt;&lt;span&gt;皇&lt;/span&gt;&lt;/div&gt;&lt;/div&gt;&lt;/div&gt;&lt;/div&gt;&lt;/div&gt;" style="text;html=1;align=center;verticalAlign=middle;resizable=0;points=[];autosize=1;strokeColor=none;fillColor=none;fontSize=14;fontColor=#000000;" parent="wkJRKBSFLRapsp1ITTY7-0" vertex="1">
                    <mxGeometry x="308" y="57" width="70" height="20" as="geometry"/>
                </mxCell>
                <mxCell id="wkJRKBSFLRapsp1ITTY7-4" value="&lt;font color=&quot;#ffff00&quot;&gt;1&lt;/font&gt;" style="ellipse;whiteSpace=wrap;html=1;aspect=fixed;fontFamily=Helvetica;fontSize=10;fontColor=#ffffff;fillColor=#a20025;strokeColor=#6F0000;" parent="wkJRKBSFLRapsp1ITTY7-0" vertex="1">
                    <mxGeometry x="140" y="52" width="19.5" height="19.5" as="geometry"/>
                </mxCell>
                <mxCell id="wkJRKBSFLRapsp1ITTY7-5" value="&lt;div style=&quot;font-size: 16px&quot;&gt;&lt;div style=&quot;font-size: 16px&quot;&gt;&lt;div style=&quot;font-size: 16px&quot;&gt;&lt;div style=&quot;font-size: 16px&quot;&gt;&lt;div style=&quot;font-size: 16px&quot;&gt;手研耳命&lt;/div&gt;&lt;/div&gt;&lt;/div&gt;&lt;/div&gt;&lt;div style=&quot;font-size: 16px&quot;&gt;&lt;/div&gt;&lt;/div&gt;" style="rounded=1;whiteSpace=wrap;html=1;fillColor=#E6E6E6;fontColor=#000000;fontSize=16;strokeColor=none;strokeWidth=2;" parent="wkJRKBSFLRapsp1ITTY7-0" vertex="1">
                    <mxGeometry x="225" y="140" width="80" height="30" as="geometry"/>
                </mxCell>
                <mxCell id="wkJRKBSFLRapsp1ITTY7-6" value="&lt;div style=&quot;font-size: 14px&quot;&gt;&lt;div style=&quot;font-size: 14px&quot;&gt;&lt;div style=&quot;font-size: 14px&quot;&gt;&lt;div style=&quot;font-size: 14px&quot;&gt;&lt;div&gt;吾平津媛&lt;/div&gt;&lt;/div&gt;&lt;/div&gt;&lt;/div&gt;&lt;/div&gt;" style="text;html=1;align=center;verticalAlign=middle;resizable=0;points=[];autosize=1;strokeColor=none;fillColor=none;fontSize=14;fontColor=#000000;" parent="wkJRKBSFLRapsp1ITTY7-0" vertex="1">
                    <mxGeometry x="270" y="120" width="70" height="20" as="geometry"/>
                </mxCell>
                <mxCell id="wkJRKBSFLRapsp1ITTY7-7" value="&lt;div style=&quot;font-size: 16px&quot;&gt;&lt;div style=&quot;font-size: 16px&quot;&gt;&lt;div style=&quot;font-size: 16px&quot;&gt;&lt;div style=&quot;font-size: 16px&quot;&gt;&lt;div style=&quot;font-size: 16px&quot;&gt;渟名川耳&lt;/div&gt;&lt;/div&gt;&lt;/div&gt;&lt;/div&gt;&lt;div style=&quot;font-size: 16px&quot;&gt;&lt;/div&gt;&lt;/div&gt;" style="rounded=1;whiteSpace=wrap;html=1;fillColor=#E6E6E6;fontColor=#000000;fontSize=16;strokeColor=none;strokeWidth=2;" parent="wkJRKBSFLRapsp1ITTY7-0" vertex="1">
                    <mxGeometry x="420" y="140" width="80" height="30" as="geometry"/>
                </mxCell>
                <mxCell id="wkJRKBSFLRapsp1ITTY7-8" value="&lt;div style=&quot;font-size: 16px&quot;&gt;&lt;div style=&quot;font-size: 16px&quot;&gt;&lt;div style=&quot;font-size: 16px&quot;&gt;&lt;div style=&quot;font-size: 16px&quot;&gt;&lt;div style=&quot;font-size: 16px&quot;&gt;神八井耳&lt;/div&gt;&lt;/div&gt;&lt;/div&gt;&lt;/div&gt;&lt;div style=&quot;font-size: 16px&quot;&gt;&lt;/div&gt;&lt;/div&gt;" style="rounded=1;whiteSpace=wrap;html=1;fillColor=#E6E6E6;fontColor=#000000;fontSize=16;strokeColor=none;strokeWidth=2;" parent="wkJRKBSFLRapsp1ITTY7-0" vertex="1">
                    <mxGeometry x="330" y="140" width="80" height="30" as="geometry"/>
                </mxCell>
                <mxCell id="xXI_VltaQj-ofGoTR1Vg-0" value="大&lt;br&gt;泊&lt;br&gt;濑" style="rounded=1;whiteSpace=wrap;html=1;fontFamily=Helvetica;fontSize=14;fontColor=#000000;strokeWidth=2;fillColor=#E6E6E6;strokeColor=none;" vertex="1" parent="wkJRKBSFLRapsp1ITTY7-0">
                    <mxGeometry x="233.5" y="361" width="30" height="60" as="geometry"/>
                </mxCell>
                <mxCell id="xXI_VltaQj-ofGoTR1Vg-1" value="雄&lt;br style=&quot;font-size: 12px;&quot;&gt;略&lt;br style=&quot;font-size: 12px;&quot;&gt;天&lt;br style=&quot;font-size: 12px;&quot;&gt;皇" style="text;html=1;strokeColor=none;fillColor=none;align=center;verticalAlign=middle;whiteSpace=wrap;rounded=0;fontFamily=Helvetica;fontSize=12;fontColor=#000000;" vertex="1" parent="wkJRKBSFLRapsp1ITTY7-0">
                    <mxGeometry x="263.5" y="355" width="20" height="70" as="geometry"/>
                </mxCell>
                <mxCell id="xXI_VltaQj-ofGoTR1Vg-2" value="？" style="rounded=1;whiteSpace=wrap;html=1;fontFamily=Helvetica;fontSize=14;fontColor=#000000;strokeWidth=2;fillColor=#E6E6E6;strokeColor=none;" vertex="1" parent="wkJRKBSFLRapsp1ITTY7-0">
                    <mxGeometry x="138.5" y="361" width="30" height="60" as="geometry"/>
                </mxCell>
                <mxCell id="xXI_VltaQj-ofGoTR1Vg-3" value="安&lt;br&gt;康&lt;br style=&quot;font-size: 12px&quot;&gt;天&lt;br style=&quot;font-size: 12px&quot;&gt;皇" style="text;html=1;strokeColor=none;fillColor=none;align=center;verticalAlign=middle;whiteSpace=wrap;rounded=0;fontFamily=Helvetica;fontSize=12;fontColor=#000000;" vertex="1" parent="wkJRKBSFLRapsp1ITTY7-0">
                    <mxGeometry x="168.5" y="355" width="20" height="70" as="geometry"/>
                </mxCell>
                <mxCell id="xXI_VltaQj-ofGoTR1Vg-4" style="edgeStyle=orthogonalEdgeStyle;shape=connector;rounded=1;html=1;exitX=0.5;exitY=1;exitDx=0;exitDy=0;labelBackgroundColor=default;fontFamily=Helvetica;fontSize=16;fontColor=#000000;endArrow=blockThin;endFill=1;strokeColor=#000000;strokeWidth=1;" edge="1" parent="wkJRKBSFLRapsp1ITTY7-0" source="xXI_VltaQj-ofGoTR1Vg-6" target="xXI_VltaQj-ofGoTR1Vg-2">
                    <mxGeometry relative="1" as="geometry"/>
                </mxCell>
                <mxCell id="xXI_VltaQj-ofGoTR1Vg-5" style="edgeStyle=orthogonalEdgeStyle;shape=connector;rounded=1;html=1;exitX=0.5;exitY=1;exitDx=0;exitDy=0;labelBackgroundColor=default;fontFamily=Helvetica;fontSize=16;fontColor=#000000;endArrow=blockThin;endFill=1;strokeColor=#000000;strokeWidth=1;entryX=0.5;entryY=0;entryDx=0;entryDy=0;" edge="1" parent="wkJRKBSFLRapsp1ITTY7-0" source="xXI_VltaQj-ofGoTR1Vg-6" target="xXI_VltaQj-ofGoTR1Vg-0">
                    <mxGeometry relative="1" as="geometry">
                        <mxPoint x="278.5" y="325" as="targetPoint"/>
                        <Array as="points">
                            <mxPoint x="213.5" y="323"/>
                            <mxPoint x="248.5" y="323"/>
                        </Array>
                    </mxGeometry>
                </mxCell>
                <mxCell id="xXI_VltaQj-ofGoTR1Vg-6" value="？" style="rounded=1;whiteSpace=wrap;html=1;fontFamily=Helvetica;fontSize=14;fontColor=#000000;strokeWidth=2;fillColor=#E6E6E6;strokeColor=none;" vertex="1" parent="wkJRKBSFLRapsp1ITTY7-0">
                    <mxGeometry x="198.5" y="225" width="30" height="60" as="geometry"/>
                </mxCell>
                <mxCell id="xXI_VltaQj-ofGoTR1Vg-7" value="大&lt;br&gt;草&lt;br&gt;香" style="rounded=1;whiteSpace=wrap;html=1;fontFamily=Helvetica;fontSize=14;fontColor=#000000;strokeWidth=2;fillColor=#E6E6E6;strokeColor=none;" vertex="1" parent="wkJRKBSFLRapsp1ITTY7-0">
                    <mxGeometry x="288.5" y="225" width="30" height="60" as="geometry"/>
                </mxCell>
                <mxCell id="xXI_VltaQj-ofGoTR1Vg-8" value="中&lt;br&gt;蒂&lt;br&gt;姬" style="rounded=1;whiteSpace=wrap;html=1;fontFamily=Helvetica;fontSize=14;fontColor=#000000;strokeWidth=2;fillColor=#E6E6E6;strokeColor=none;" vertex="1" parent="wkJRKBSFLRapsp1ITTY7-0">
                    <mxGeometry x="361.5" y="225" width="30" height="60" as="geometry"/>
                </mxCell>
                <mxCell id="xXI_VltaQj-ofGoTR1Vg-9" value="眉&lt;br&gt;轮&lt;br&gt;王" style="rounded=1;whiteSpace=wrap;html=1;fontFamily=Helvetica;fontSize=14;fontColor=#000000;strokeWidth=2;fillColor=#E6E6E6;strokeColor=none;" vertex="1" parent="wkJRKBSFLRapsp1ITTY7-0">
                    <mxGeometry x="325.5" y="361" width="30" height="60" as="geometry"/>
                </mxCell>
                <mxCell id="xXI_VltaQj-ofGoTR1Vg-10" value="允恭&lt;br style=&quot;font-size: 12px&quot;&gt;天&lt;br style=&quot;font-size: 12px&quot;&gt;皇" style="text;html=1;strokeColor=none;fillColor=none;align=center;verticalAlign=middle;whiteSpace=wrap;rounded=0;fontFamily=Helvetica;fontSize=12;fontColor=#000000;" vertex="1" parent="wkJRKBSFLRapsp1ITTY7-0">
                    <mxGeometry x="228.5" y="220" width="20" height="70" as="geometry"/>
                </mxCell>
                <mxCell id="xXI_VltaQj-ofGoTR1Vg-11" value="忍坂大中姬" style="text;html=1;strokeColor=none;fillColor=none;align=center;verticalAlign=middle;whiteSpace=wrap;rounded=0;fontFamily=Helvetica;fontSize=12;fontColor=#000000;" vertex="1" parent="wkJRKBSFLRapsp1ITTY7-0">
                    <mxGeometry x="248.5" y="335" width="65" height="20" as="geometry"/>
                </mxCell>
                <mxCell id="xXI_VltaQj-ofGoTR1Vg-12" style="edgeStyle=orthogonalEdgeStyle;rounded=1;html=1;exitX=1;exitY=0;exitDx=0;exitDy=0;exitPerimeter=0;entryX=0.5;entryY=1;entryDx=0;entryDy=0;labelBackgroundColor=default;fontFamily=Helvetica;fontSize=10;fontColor=#000000;endArrow=none;endFill=0;strokeColor=#000000;strokeWidth=1;" edge="1" parent="wkJRKBSFLRapsp1ITTY7-0" source="xXI_VltaQj-ofGoTR1Vg-15" target="xXI_VltaQj-ofGoTR1Vg-7">
                    <mxGeometry relative="1" as="geometry"/>
                </mxCell>
                <mxCell id="xXI_VltaQj-ofGoTR1Vg-13" style="edgeStyle=orthogonalEdgeStyle;rounded=1;html=1;exitX=1;exitY=1;exitDx=0;exitDy=0;exitPerimeter=0;entryX=0.5;entryY=1;entryDx=0;entryDy=0;labelBackgroundColor=default;fontFamily=Helvetica;fontSize=10;fontColor=#000000;endArrow=none;endFill=0;strokeColor=#000000;strokeWidth=1;" edge="1" parent="wkJRKBSFLRapsp1ITTY7-0" source="xXI_VltaQj-ofGoTR1Vg-15" target="xXI_VltaQj-ofGoTR1Vg-8">
                    <mxGeometry relative="1" as="geometry"/>
                </mxCell>
                <mxCell id="xXI_VltaQj-ofGoTR1Vg-14" style="edgeStyle=orthogonalEdgeStyle;rounded=1;html=1;exitX=0;exitY=0.5;exitDx=0;exitDy=0;exitPerimeter=0;entryX=0.5;entryY=0;entryDx=0;entryDy=0;labelBackgroundColor=default;fontFamily=Helvetica;fontSize=10;fontColor=#000000;endArrow=blockThin;endFill=1;strokeColor=#000000;strokeWidth=1;" edge="1" parent="wkJRKBSFLRapsp1ITTY7-0" source="xXI_VltaQj-ofGoTR1Vg-15" target="xXI_VltaQj-ofGoTR1Vg-9">
                    <mxGeometry relative="1" as="geometry"/>
                </mxCell>
                <mxCell id="xXI_VltaQj-ofGoTR1Vg-15" value="" style="strokeWidth=1;html=1;shape=mxgraph.flowchart.annotation_1;align=left;pointerEvents=1;fontFamily=Helvetica;fontSize=10;fontColor=#000000;fillColor=#E6E6E6;strokeColor=#000000;rotation=-90;" vertex="1" parent="wkJRKBSFLRapsp1ITTY7-0">
                    <mxGeometry x="330.75" y="256.25" width="18.5" height="73" as="geometry"/>
                </mxCell>
            </root>
        </mxGraphModel>
    </diagram>
</mxfile>